<svg width="103" height="100" viewBox="0 0 103 100" fill="none" xmlns="http://www.w3.org/2000/svg">
<path d="M51.5 0C23.072 0 0 22.4 0 50C0 77.6 23.072 100 51.5 100C79.928 100 103 77.6 103 50C103 22.4 79.928 0 51.5 0ZM26.1105 81.4C28.325 76.9 41.818 72.5 51.5 72.5C61.182 72.5 74.7265 76.9 76.8895 81.4C69.8855 86.8 61.079 90 51.5 90C41.921 90 33.1145 86.8 26.1105 81.4ZM84.254 74.15C76.8895 65.45 59.019 62.5 51.5 62.5C43.981 62.5 26.1105 65.45 18.746 74.15C13.493 67.45 10.3 59.1 10.3 50C10.3 27.95 28.7885 10 51.5 10C74.2115 10 92.7 27.95 92.7 50C92.7 59.1 89.507 67.45 84.254 74.15ZM51.5 20C41.509 20 33.475 27.8 33.475 37.5C33.475 47.2 41.509 55 51.5 55C61.491 55 69.525 47.2 69.525 37.5C69.525 27.8 61.491 20 51.5 20ZM51.5 45C47.2255 45 43.775 41.65 43.775 37.5C43.775 33.35 47.2255 30 51.5 30C55.7745 30 59.225 33.35 59.225 37.5C59.225 41.65 55.7745 45 51.5 45Z" fill="#14A6A6"/>
</svg>
