<svg width="67" height="67" viewBox="0 0 67 67" fill="none" xmlns="http://www.w3.org/2000/svg">
<path d="M33.5002 5.58301C18.0902 5.58301 5.5835 18.0897 5.5835 33.4997C5.5835 48.9097 18.0902 61.4163 33.5002 61.4163C48.9102 61.4163 61.4168 48.9097 61.4168 33.4997C61.4168 18.0897 48.9102 5.58301 33.5002 5.58301ZM19.7372 51.0313C20.9377 48.5188 28.2518 46.0622 33.5002 46.0622C38.7485 46.0622 46.0906 48.5188 47.2631 51.0313C43.4664 54.0463 38.6927 55.833 33.5002 55.833C28.3077 55.833 23.5339 54.0463 19.7372 51.0313ZM51.2552 46.9834C47.2631 42.1259 37.576 40.4788 33.5002 40.4788C29.4243 40.4788 19.7372 42.1259 15.7452 46.9834C12.8977 43.2426 11.1668 38.5805 11.1668 33.4997C11.1668 21.1884 21.1889 11.1663 33.5002 11.1663C45.8114 11.1663 55.8335 21.1884 55.8335 33.4997C55.8335 38.5805 54.1027 43.2426 51.2552 46.9834ZM33.5002 16.7497C28.0843 16.7497 23.7293 21.1047 23.7293 26.5205C23.7293 31.9363 28.0843 36.2913 33.5002 36.2913C38.916 36.2913 43.271 31.9363 43.271 26.5205C43.271 21.1047 38.916 16.7497 33.5002 16.7497ZM33.5002 30.708C31.1831 30.708 29.3127 28.8376 29.3127 26.5205C29.3127 24.2034 31.1831 22.333 33.5002 22.333C35.8172 22.333 37.6877 24.2034 37.6877 26.5205C37.6877 28.8376 35.8172 30.708 33.5002 30.708Z" fill="#14A6A6"/>
</svg>
